HIERARCHY
ROOT root
{
	OFFSET	0	13.1	24.9
	CHANNELS 6  Xposition Yposition Zposition Xrotation Yrotation Zrotation
	JOINT spine_1
	{
		OFFSET	0	9.99999	0
		CHANNELS 3  Xrotation Yrotation Zrotation
		JOINT spine_2
		{
			OFFSET	0	112	-10
			CHANNELS 3  Xrotation Yrotation Zrotation
			JOINT spine_3
			{
				OFFSET	0	206.5	19.3
				CHANNELS 3  Xrotation Yrotation Zrotation
				JOINT spine_4
				{
					OFFSET	0	110.4	14.6
					CHANNELS 3  Xrotation Yrotation Zrotation
					JOINT neck_1
					{
						OFFSET	0	71.8	-50.3
						CHANNELS 3  Xrotation Yrotation Zrotation
						JOINT neck_2
						{
							OFFSET	0	86.2	-25.8
							CHANNELS 3  Xrotation Yrotation Zrotation
							JOINT head_ee
							{
								OFFSET	0	179.8	-8.7
								CHANNELS 3  Xrotation Yrotation Zrotation
								End Site
								{
									OFFSET	1	0	0
								}
							}
						}
					}
					JOINT left_clavicle
					{
						OFFSET	-43.2	22.4	-70.8
						CHANNELS 3  Xrotation Yrotation Zrotation
						JOINT left_shoulder
						{
							OFFSET	-93.9	-5.79999	48.7
							CHANNELS 3  Xrotation Yrotation Zrotation
							JOINT left_elbow
							{
								OFFSET	-291.4	-30.8	15.2
								CHANNELS 3  Xrotation Yrotation Zrotation
								JOINT left_lowarm_twist
								{
									OFFSET	-110.7	-3.89999	13.6
									CHANNELS 3  Xrotation Yrotation Zrotation
									JOINT left_hand
									{
										OFFSET	-110.7	-3.89999	13.6
										CHANNELS 3  Xrotation Yrotation Zrotation
										JOINT left_ee
										{
											OFFSET	-80.8	-5.10001	12.1
											CHANNELS 3  Xrotation Yrotation Zrotation
											End Site
											{
												OFFSET	1	0	0
											}
										}
									}
								}
							}
						}
					}
					JOINT right_clavicle
					{
						OFFSET	43.2	22.4	-70.8
						CHANNELS 3  Xrotation Yrotation Zrotation
						JOINT right_shoulder
						{
							OFFSET	93.9	-5.79999	48.7
							CHANNELS 3  Xrotation Yrotation Zrotation
							JOINT right_elbow
							{
								OFFSET	291.4	-30.8	15.2
								CHANNELS 3  Xrotation Yrotation Zrotation
								JOINT right_lowarm_twist
								{
									OFFSET	110.7	-3.89999	13.6
									CHANNELS 3  Xrotation Yrotation Zrotation
									JOINT right_hand
									{
										OFFSET	110.7	-3.89999	13.6
										CHANNELS 3  Xrotation Yrotation Zrotation
										JOINT right_ee
										{
											OFFSET	80.8	-5.10001	12.1
											CHANNELS 3  Xrotation Yrotation Zrotation
											End Site
											{
												OFFSET	1	0	0
											}
										}
									}
								}
							}
						}
					}
				}
			}
		}
	}
	JOINT left_hip
	{
		OFFSET	-82.8	-127.5	0.300001
		CHANNELS 3  Xrotation Yrotation Zrotation
		JOINT left_knee
		{
			OFFSET	-28.2	-396.7	2.2
			CHANNELS 3  Xrotation Yrotation Zrotation
			JOINT left_ankle
			{
				OFFSET	-11.7	-411.3	35.4
				CHANNELS 3  Xrotation Yrotation Zrotation
				JOINT left_toes
				{
					OFFSET	0	-60	-88.6
					CHANNELS 3  Xrotation Yrotation Zrotation
					JOINT left_foot_ee
					{
						OFFSET	-22.5	-16.5	-42.2
						CHANNELS 3  Xrotation Yrotation Zrotation
						End Site
						{
							OFFSET	1	0	0
						}
					}
				}
			}
		}
	}
	JOINT right_hip
	{
		OFFSET	82.8	-127.5	0.300001
		CHANNELS 3  Xrotation Yrotation Zrotation
		JOINT right_knee
		{
			OFFSET	28.2	-396.7	2.2
			CHANNELS 3  Xrotation Yrotation Zrotation
			JOINT right_ankle
			{
				OFFSET	11.7	-411.3	35.4
				CHANNELS 3  Xrotation Yrotation Zrotation
				JOINT right_toes
				{
					OFFSET	0	-60	-88.6
					CHANNELS 3  Xrotation Yrotation Zrotation
					JOINT right_foot_ee
					{
						OFFSET	22.5	-16.5	-42.2
						CHANNELS 3  Xrotation Yrotation Zrotation
						End Site
						{
							OFFSET	1	0	0
						}
					}
				}
			}
		}
	}
}
MOTION
Frames: 12
Frame Time: 0.02
784.204275603 618.067 -1513.49553461 -139.431236446 80.3192751289 135.573253144 5.10753 0.618827 4.51917 5.11883 0.330312 4.5493 5.13495 -0.226517 4.55564 5.10635 0.495047 4.53436 -16.0156 11.5833 -3.59265 -16.6004 24.2549 0.834461 -0.0 0.0 -0.0 -12.3116 21.8377 -15.6525 -11.7078 -43.2348 62.8879 1.04483 -27.3643 0.254363 -11.5176 -0.545128 1.36549 2.44783 6.31501 18.9957 -0.0 0.0 -0.0 10.8484 -7.14093 -20.8014 -34.0858 56.041 -55.6277 1.23975 31.5543 -0.350292 43.0521 0.517461 5.34774 1.79417 -15.1162 -17.5954 0.0 0.0 0.0 2.33388 23.0372 6.82276 7.24866 -0.365593 -1.05107 25.9095 -29.052 -4.22069 -21.3135 0.0 0.0 -0.0 0.0 -0.0 26.0945 13.6154 -4.72345 -33.5785 0.109549 -5.07899 22.7447 -18.1949 3.12567 1.87192 -0.0 -0.0 0.0 0.0 0.0 
765.592638399 620.916 -1467.12024944 -165.171455536 56.6389362306 161.051113159 4.57586 0.640972 4.9453 4.5894 0.325389 4.97596 4.60755 -0.329486 4.97569 4.57332 0.459473 4.9654 -10.1656 5.32687 -5.32432 -10.1375 13.6125 -3.85048 -0.0 0.0 -0.0 -11.9512 17.2274 -17.2839 -19.1894 -69.3742 53.7291 0.921024 -24.5244 0.200184 17.1255 0.282284 -2.16129 1.17057 9.31152 11.4715 -0.0 0.0 -0.0 10.1123 -3.28765 -19.6867 -36.0633 55.052 -60.1762 0.661222 18.1363 -0.105535 45.919 0.692381 5.67016 1.12189 0.67786 -7.23897 0.0 0.0 0.0 9.11437 -7.59966 10.1961 5.81606 -0.282811 -0.847063 15.2489 -14.7883 -2.29658 -12.3703 0.0 0.0 -0.0 0.0 -0.0 24.3004 30.8967 -3.15076 -25.9536 -0.177664 -3.94494 15.787 -24.1313 2.29132 3.09072 -0.0 -0.0 0.0 0.0 0.0 
767.095573675 620.916 -1465.20866281 -165.324336295 56.2538683285 161.234561103 4.57586 0.640972 4.9453 4.5894 0.325389 4.97596 4.60755 -0.329486 4.97569 4.57332 0.459473 4.9654 -10.1656 5.32687 -5.32432 -10.1375 13.6125 -3.85048 -0.0 0.0 -0.0 -11.9512 17.2274 -17.2839 -19.1894 -69.3742 53.7291 0.921024 -24.5244 0.200184 17.1255 0.282284 -2.16129 1.17057 9.31152 11.4715 -0.0 0.0 -0.0 10.1123 -3.28765 -19.6867 -36.0633 55.052 -60.1762 0.661222 18.1363 -0.105535 45.919 0.692381 5.67016 1.12189 0.67786 -7.23897 0.0 0.0 0.0 9.11437 -7.59966 10.1961 5.81606 -0.282811 -0.847063 15.2489 -14.7883 -2.29658 -12.3703 0.0 0.0 -0.0 0.0 -0.0 24.3004 30.8967 -3.15076 -25.9536 -0.177664 -3.94494 15.787 -24.1313 2.29132 3.09072 -0.0 -0.0 0.0 0.0 0.0 
766.299427519 620.916 -1466.21787623 -165.243990606 56.4574590048 161.138049086 4.57586 0.640972 4.9453 4.5894 0.325389 4.97596 4.60755 -0.329486 4.97569 4.57332 0.459473 4.9654 -10.1656 5.32687 -5.32432 -10.1375 13.6125 -3.85048 -0.0 0.0 -0.0 -11.9512 17.2274 -17.2839 -19.1894 -69.3742 53.7291 0.921024 -24.5244 0.200184 17.1255 0.282284 -2.16129 1.17057 9.31152 11.4715 -0.0 0.0 -0.0 10.1123 -3.28765 -19.6867 -36.0633 55.052 -60.1762 0.661222 18.1363 -0.105535 45.919 0.692381 5.67016 1.12189 0.67786 -7.23897 0.0 0.0 0.0 9.11437 -7.59966 10.1961 5.81606 -0.282811 -0.847063 15.2489 -14.7883 -2.29658 -12.3703 0.0 0.0 -0.0 0.0 -0.0 24.3004 30.8967 -3.15076 -25.9536 -0.177664 -3.94494 15.787 -24.1313 2.29132 3.09072 -0.0 -0.0 0.0 0.0 0.0 
765.185047291 620.916 -1467.64341095 -165.129098204 56.743909586 161.000429854 4.57586 0.640972 4.9453 4.5894 0.325389 4.97596 4.60755 -0.329486 4.97569 4.57332 0.459473 4.9654 -10.1656 5.32687 -5.32432 -10.1375 13.6125 -3.85048 -0.0 0.0 -0.0 -11.9512 17.2274 -17.2839 -19.1894 -69.3742 53.7291 0.921024 -24.5244 0.200184 17.1255 0.282284 -2.16129 1.17057 9.31152 11.4715 -0.0 0.0 -0.0 10.1123 -3.28765 -19.6867 -36.0633 55.052 -60.1762 0.661222 18.1363 -0.105535 45.919 0.692381 5.67016 1.12189 0.67786 -7.23897 0.0 0.0 0.0 9.11437 -7.59966 10.1961 5.81606 -0.282811 -0.847063 15.2489 -14.7883 -2.29658 -12.3703 0.0 0.0 -0.0 0.0 -0.0 24.3004 30.8967 -3.15076 -25.9536 -0.177664 -3.94494 15.787 -24.1313 2.29132 3.09072 -0.0 -0.0 0.0 0.0 0.0 
762.976560278 620.916 -1470.51419187 -164.892604788 57.3168452631 160.718544494 4.57586 0.640972 4.9453 4.5894 0.325389 4.97596 4.60755 -0.329486 4.97569 4.57332 0.459473 4.9654 -10.1656 5.32687 -5.32432 -10.1375 13.6125 -3.85048 -0.0 0.0 -0.0 -11.9512 17.2274 -17.2839 -19.1894 -69.3742 53.7291 0.921024 -24.5244 0.200184 17.1255 0.282284 -2.16129 1.17057 9.31152 11.4715 -0.0 0.0 -0.0 10.1123 -3.28765 -19.6867 -36.0633 55.052 -60.1762 0.661222 18.1363 -0.105535 45.919 0.692381 5.67016 1.12189 0.67786 -7.23897 0.0 0.0 0.0 9.11437 -7.59966 10.1961 5.81606 -0.282811 -0.847063 15.2489 -14.7883 -2.29658 -12.3703 0.0 0.0 -0.0 0.0 -0.0 24.3004 30.8967 -3.15076 -25.9536 -0.177664 -3.94494 15.787 -24.1313 2.29132 3.09072 -0.0 -0.0 0.0 0.0 0.0 
761.696549312 620.916 -1472.20662512 -164.749877533 57.6522033434 160.549285981 4.57586 0.640972 4.9453 4.5894 0.325389 4.97596 4.60755 -0.329486 4.97569 4.57332 0.459473 4.9654 -10.1656 5.32687 -5.32432 -10.1375 13.6125 -3.85048 -0.0 0.0 -0.0 -11.9512 17.2274 -17.2839 -19.1894 -69.3742 53.7291 0.921024 -24.5244 0.200184 17.1255 0.282284 -2.16129 1.17057 9.31152 11.4715 -0.0 0.0 -0.0 10.1123 -3.28765 -19.6867 -36.0633 55.052 -60.1762 0.661222 18.1363 -0.105535 45.919 0.692381 5.67016 1.12189 0.67786 -7.23897 0.0 0.0 0.0 9.11437 -7.59966 10.1961 5.81606 -0.282811 -0.847063 15.2489 -14.7883 -2.29658 -12.3703 0.0 0.0 -0.0 0.0 -0.0 24.3004 30.8967 -3.15076 -25.9536 -0.177664 -3.94494 15.787 -24.1313 2.29132 3.09072 -0.0 -0.0 0.0 0.0 0.0 
761.257899441 620.916 -1472.7915506 -164.699963869 57.7676987055 160.490241366 4.57586 0.640972 4.9453 4.5894 0.325389 4.97596 4.60755 -0.329486 4.97569 4.57332 0.459473 4.9654 -10.1656 5.32687 -5.32432 -10.1375 13.6125 -3.85048 -0.0 0.0 -0.0 -11.9512 17.2274 -17.2839 -19.1894 -69.3742 53.7291 0.921024 -24.5244 0.200184 17.1255 0.282284 -2.16129 1.17057 9.31152 11.4715 -0.0 0.0 -0.0 10.1123 -3.28765 -19.6867 -36.0633 55.052 -60.1762 0.661222 18.1363 -0.105535 45.919 0.692381 5.67016 1.12189 0.67786 -7.23897 0.0 0.0 0.0 9.11437 -7.59966 10.1961 5.81606 -0.282811 -0.847063 15.2489 -14.7883 -2.29658 -12.3703 0.0 0.0 -0.0 0.0 -0.0 24.3004 30.8967 -3.15076 -25.9536 -0.177664 -3.94494 15.787 -24.1313 2.29132 3.09072 -0.0 -0.0 0.0 0.0 0.0 
760.427610003 620.916 -1473.90573343 -164.604040229 57.9871234591 160.376978813 4.57586 0.640972 4.9453 4.5894 0.325389 4.97596 4.60755 -0.329486 4.97569 4.57332 0.459473 4.9654 -10.1656 5.32687 -5.32432 -10.1375 13.6125 -3.85048 -0.0 0.0 -0.0 -11.9512 17.2274 -17.2839 -19.1894 -69.3742 53.7291 0.921024 -24.5244 0.200184 17.1255 0.282284 -2.16129 1.17057 9.31152 11.4715 -0.0 0.0 -0.0 10.1123 -3.28765 -19.6867 -36.0633 55.052 -60.1762 0.661222 18.1363 -0.105535 45.919 0.692381 5.67016 1.12189 0.67786 -7.23897 0.0 0.0 0.0 9.11437 -7.59966 10.1961 5.81606 -0.282811 -0.847063 15.2489 -14.7883 -2.29658 -12.3703 0.0 0.0 -0.0 0.0 -0.0 24.3004 30.8967 -3.15076 -25.9536 -0.177664 -3.94494 15.787 -24.1313 2.29132 3.09072 -0.0 -0.0 0.0 0.0 0.0 
759.208227947 620.916 -1475.55896672 -164.459625763 58.3113348775 160.20696523 4.57586 0.640972 4.9453 4.5894 0.325389 4.97596 4.60755 -0.329486 4.97569 4.57332 0.459473 4.9654 -10.1656 5.32687 -5.32432 -10.1375 13.6125 -3.85048 -0.0 0.0 -0.0 -11.9512 17.2274 -17.2839 -19.1894 -69.3742 53.7291 0.921024 -24.5244 0.200184 17.1255 0.282284 -2.16129 1.17057 9.31152 11.4715 -0.0 0.0 -0.0 10.1123 -3.28765 -19.6867 -36.0633 55.052 -60.1762 0.661222 18.1363 -0.105535 45.919 0.692381 5.67016 1.12189 0.67786 -7.23897 0.0 0.0 0.0 9.11437 -7.59966 10.1961 5.81606 -0.282811 -0.847063 15.2489 -14.7883 -2.29658 -12.3703 0.0 0.0 -0.0 0.0 -0.0 24.3004 30.8967 -3.15076 -25.9536 -0.177664 -3.94494 15.787 -24.1313 2.29132 3.09072 -0.0 -0.0 0.0 0.0 0.0 
759.081275752 620.916 -1475.73226151 -164.444341707 58.3452251856 160.189006602 4.57586 0.640972 4.9453 4.5894 0.325389 4.97596 4.60755 -0.329486 4.97569 4.57332 0.459473 4.9654 -10.1656 5.32687 -5.32432 -10.1375 13.6125 -3.85048 -0.0 0.0 -0.0 -11.9512 17.2274 -17.2839 -19.1894 -69.3742 53.7291 0.921024 -24.5244 0.200184 17.1255 0.282284 -2.16129 1.17057 9.31152 11.4715 -0.0 0.0 -0.0 10.1123 -3.28765 -19.6867 -36.0633 55.052 -60.1762 0.661222 18.1363 -0.105535 45.919 0.692381 5.67016 1.12189 0.67786 -7.23897 0.0 0.0 0.0 9.11437 -7.59966 10.1961 5.81606 -0.282811 -0.847063 15.2489 -14.7883 -2.29658 -12.3703 0.0 0.0 -0.0 0.0 -0.0 24.3004 30.8967 -3.15076 -25.9536 -0.177664 -3.94494 15.787 -24.1313 2.29132 3.09072 -0.0 -0.0 0.0 0.0 0.0 
756.385398293 620.916 -1479.46591623 -164.108103099 59.0711323685 159.79553846 4.57586 0.640972 4.9453 4.5894 0.325389 4.97596 4.60755 -0.329486 4.97569 4.57332 0.459473 4.9654 -10.1656 5.32687 -5.32432 -10.1375 13.6125 -3.85048 -0.0 0.0 -0.0 -11.9512 17.2274 -17.2839 -19.1894 -69.3742 53.7291 0.921024 -24.5244 0.200184 17.1255 0.282284 -2.16129 1.17057 9.31152 11.4715 -0.0 0.0 -0.0 10.1123 -3.28765 -19.6867 -36.0633 55.052 -60.1762 0.661222 18.1363 -0.105535 45.919 0.692381 5.67016 1.12189 0.67786 -7.23897 0.0 0.0 0.0 9.11437 -7.59966 10.1961 5.81606 -0.282811 -0.847063 15.2489 -14.7883 -2.29658 -12.3703 0.0 0.0 -0.0 0.0 -0.0 24.3004 30.8967 -3.15076 -25.9536 -0.177664 -3.94494 15.787 -24.1313 2.29132 3.09072 -0.0 -0.0 0.0 0.0 0.0 
